<svg xmlns="http://www.w3.org/2000/svg" xmlns:xlink="http://www.w3.org/1999/xlink" version="1.1" class="marks" width="388" height="281" viewBox="0 0 388 281"><rect width="388" height="281" fill="white"/><g fill="none" stroke-miterlimit="10" transform="translate(52,22)"><g class="mark-group role-frame root" role="graphics-object" aria-roledescription="group mark container"><g transform="translate(0,0)"><path class="background" aria-hidden="true" d="M0.5,0.5h220v220h-220Z" stroke="#ddd"/><g><g class="mark-rect role-mark marks" role="graphics-object" aria-roledescription="rect mark container"><path aria-label="x: 90; y: 90; Temperature in °F: 16200" role="graphics-symbol" aria-roledescription="rect mark" d="M200,0h20v20h-20Z" fill="rgb(153, 74, 7)"/><path aria-label="x: 89; y: 90; Temperature in °F: 16021" role="graphics-symbol" aria-roledescription="rect mark" d="M180,0h20v20h-20Z" fill="rgb(176, 90, 10)"/><path aria-label="x: 88; y: 90; Temperature in °F: 15844" role="graphics-symbol" aria-roledescription="rect mark" d="M160,0h20v20h-20Z" fill="rgb(199, 107, 15)"/><path aria-label="x: 87; y: 90; Temperature in °F: 15669" role="graphics-symbol" aria-roledescription="rect mark" d="M140,0h20v20h-20Z" fill="rgb(217, 129, 32)"/><path aria-label="x: 86; y: 90; Temperature in °F: 15496" role="graphics-symbol" aria-roledescription="rect mark" d="M120,0h20v20h-20Z" fill="rgb(233, 150, 52)"/><path aria-label="x: 85; y: 90; Temperature in °F: 15325" role="graphics-symbol" aria-roledescription="rect mark" d="M100,0h20v20h-20Z" fill="rgb(243, 172, 87)"/><path aria-label="x: 84; y: 90; Temperature in °F: 15156" role="graphics-symbol" aria-roledescription="rect mark" d="M80,0h20v20h-20Z" fill="rgb(251, 193, 121)"/><path aria-label="x: 83; y: 90; Temperature in °F: 14989" role="graphics-symbol" aria-roledescription="rect mark" d="M60,0h20v20h-20Z" fill="rgb(252, 210, 155)"/><path aria-label="x: 82; y: 90; Temperature in °F: 14824" role="graphics-symbol" aria-roledescription="rect mark" d="M40,0h20v20h-20Z" fill="rgb(252, 225, 188)"/><path aria-label="x: 81; y: 90; Temperature in °F: 14661" role="graphics-symbol" aria-roledescription="rect mark" d="M20,0h20v20h-20Z" fill="rgb(247, 232, 212)"/><path aria-label="x: 80; y: 90; Temperature in °F: 14500" role="graphics-symbol" aria-roledescription="rect mark" d="M0,0h20v20h-20Z" fill="rgb(242, 240, 235)"/><path aria-label="x: 90; y: 89; Temperature in °F: 16021" role="graphics-symbol" aria-roledescription="rect mark" d="M200,20h20v20h-20Z" fill="rgb(176, 90, 10)"/><path aria-label="x: 89; y: 89; Temperature in °F: 15842" role="graphics-symbol" aria-roledescription="rect mark" d="M180,20h20v20h-20Z" fill="rgb(199, 107, 15)"/><path aria-label="x: 88; y: 89; Temperature in °F: 15665" role="graphics-symbol" aria-roledescription="rect mark" d="M160,20h20v20h-20Z" fill="rgb(217, 129, 33)"/><path aria-label="x: 87; y: 89; Temperature in °F: 15490" role="graphics-symbol" aria-roledescription="rect mark" d="M140,20h20v20h-20Z" fill="rgb(234, 151, 53)"/><path aria-label="x: 86; y: 89; Temperature in °F: 15317" role="graphics-symbol" aria-roledescription="rect mark" d="M120,20h20v20h-20Z" fill="rgb(243, 173, 88)"/><path aria-label="x: 85; y: 89; Temperature in °F: 15146" role="graphics-symbol" aria-roledescription="rect mark" d="M100,20h20v20h-20Z" fill="rgb(251, 194, 123)"/><path aria-label="x: 84; y: 89; Temperature in °F: 14977" role="graphics-symbol" aria-roledescription="rect mark" d="M80,20h20v20h-20Z" fill="rgb(252, 211, 158)"/><path aria-label="x: 83; y: 89; Temperature in °F: 14810" role="graphics-symbol" aria-roledescription="rect mark" d="M60,20h20v20h-20Z" fill="rgb(251, 225, 190)"/><path aria-label="x: 82; y: 89; Temperature in °F: 14645" role="graphics-symbol" aria-roledescription="rect mark" d="M40,20h20v20h-20Z" fill="rgb(246, 233, 214)"/><path aria-label="x: 81; y: 89; Temperature in °F: 14482" role="graphics-symbol" aria-roledescription="rect mark" d="M20,20h20v20h-20Z" fill="rgb(240, 239, 235)"/><path aria-label="x: 80; y: 89; Temperature in °F: 14321" role="graphics-symbol" aria-roledescription="rect mark" d="M0,20h20v20h-20Z" fill="rgb(225, 234, 237)"/><path aria-label="x: 90; y: 88; Temperature in °F: 15844" role="graphics-symbol" aria-roledescription="rect mark" d="M200,40h20v20h-20Z" fill="rgb(199, 107, 15)"/><path aria-label="x: 89; y: 88; Temperature in °F: 15665" role="graphics-symbol" aria-roledescription="rect mark" d="M180,40h20v20h-20Z" fill="rgb(217, 129, 33)"/><path aria-label="x: 88; y: 88; Temperature in °F: 15488" role="graphics-symbol" aria-roledescription="rect mark" d="M160,40h20v20h-20Z" fill="rgb(234, 151, 53)"/><path aria-label="x: 87; y: 88; Temperature in °F: 15313" role="graphics-symbol" aria-roledescription="rect mark" d="M140,40h20v20h-20Z" fill="rgb(244, 174, 89)"/><path aria-label="x: 86; y: 88; Temperature in °F: 15140" role="graphics-symbol" aria-roledescription="rect mark" d="M120,40h20v20h-20Z" fill="rgb(251, 195, 124)"/><path aria-label="x: 85; y: 88; Temperature in °F: 14969" role="graphics-symbol" aria-roledescription="rect mark" d="M100,40h20v20h-20Z" fill="rgb(252, 211, 159)"/><path aria-label="x: 84; y: 88; Temperature in °F: 14800" role="graphics-symbol" aria-roledescription="rect mark" d="M80,40h20v20h-20Z" fill="rgb(251, 226, 192)"/><path aria-label="x: 83; y: 88; Temperature in °F: 14633" role="graphics-symbol" aria-roledescription="rect mark" d="M60,40h20v20h-20Z" fill="rgb(246, 234, 216)"/><path aria-label="x: 82; y: 88; Temperature in °F: 14468" role="graphics-symbol" aria-roledescription="rect mark" d="M40,40h20v20h-20Z" fill="rgb(239, 239, 235)"/><path aria-label="x: 81; y: 88; Temperature in °F: 14305" role="graphics-symbol" aria-roledescription="rect mark" d="M20,40h20v20h-20Z" fill="rgb(224, 234, 237)"/><path aria-label="x: 80; y: 88; Temperature in °F: 14144" role="graphics-symbol" aria-roledescription="rect mark" d="M0,40h20v20h-20Z" fill="rgb(208, 228, 238)"/><path aria-label="x: 90; y: 87; Temperature in °F: 15669" role="graphics-symbol" aria-roledescription="rect mark" d="M200,60h20v20h-20Z" fill="rgb(217, 129, 32)"/><path aria-label="x: 89; y: 87; Temperature in °F: 15490" role="graphics-symbol" aria-roledescription="rect mark" d="M180,60h20v20h-20Z" fill="rgb(234, 151, 53)"/><path aria-label="x: 88; y: 87; Temperature in °F: 15313" role="graphics-symbol" aria-roledescription="rect mark" d="M160,60h20v20h-20Z" fill="rgb(244, 174, 89)"/><path aria-label="x: 87; y: 87; Temperature in °F: 15138" role="graphics-symbol" aria-roledescription="rect mark" d="M140,60h20v20h-20Z" fill="rgb(251, 195, 125)"/><path aria-label="x: 86; y: 87; Temperature in °F: 14965" role="graphics-symbol" aria-roledescription="rect mark" d="M120,60h20v20h-20Z" fill="rgb(252, 212, 160)"/><path aria-label="x: 85; y: 87; Temperature in °F: 14794" role="graphics-symbol" aria-roledescription="rect mark" d="M100,60h20v20h-20Z" fill="rgb(251, 226, 193)"/><path aria-label="x: 84; y: 87; Temperature in °F: 14625" role="graphics-symbol" aria-roledescription="rect mark" d="M80,60h20v20h-20Z" fill="rgb(246, 234, 217)"/><path aria-label="x: 83; y: 87; Temperature in °F: 14458" role="graphics-symbol" aria-roledescription="rect mark" d="M60,60h20v20h-20Z" fill="rgb(238, 239, 235)"/><path aria-label="x: 82; y: 87; Temperature in °F: 14293" role="graphics-symbol" aria-roledescription="rect mark" d="M40,60h20v20h-20Z" fill="rgb(223, 233, 237)"/><path aria-label="x: 81; y: 87; Temperature in °F: 14130" role="graphics-symbol" aria-roledescription="rect mark" d="M20,60h20v20h-20Z" fill="rgb(205, 227, 238)"/><path aria-label="x: 80; y: 87; Temperature in °F: 13969" role="graphics-symbol" aria-roledescription="rect mark" d="M0,60h20v20h-20Z" fill="rgb(180, 214, 231)"/><path aria-label="x: 90; y: 86; Temperature in °F: 15496" role="graphics-symbol" aria-roledescription="rect mark" d="M200,80h20v20h-20Z" fill="rgb(233, 150, 52)"/><path aria-label="x: 89; y: 86; Temperature in °F: 15317" role="graphics-symbol" aria-roledescription="rect mark" d="M180,80h20v20h-20Z" fill="rgb(243, 173, 88)"/><path aria-label="x: 88; y: 86; Temperature in °F: 15140" role="graphics-symbol" aria-roledescription="rect mark" d="M160,80h20v20h-20Z" fill="rgb(251, 195, 124)"/><path aria-label="x: 87; y: 86; Temperature in °F: 14965" role="graphics-symbol" aria-roledescription="rect mark" d="M140,80h20v20h-20Z" fill="rgb(252, 212, 160)"/><path aria-label="x: 86; y: 86; Temperature in °F: 14792" role="graphics-symbol" aria-roledescription="rect mark" d="M120,80h20v20h-20Z" fill="rgb(251, 226, 193)"/><path aria-label="x: 85; y: 86; Temperature in °F: 14621" role="graphics-symbol" aria-roledescription="rect mark" d="M100,80h20v20h-20Z" fill="rgb(246, 234, 218)"/><path aria-label="x: 84; y: 86; Temperature in °F: 14452" role="graphics-symbol" aria-roledescription="rect mark" d="M80,80h20v20h-20Z" fill="rgb(237, 238, 236)"/><path aria-label="x: 83; y: 86; Temperature in °F: 14285" role="graphics-symbol" aria-roledescription="rect mark" d="M60,80h20v20h-20Z" fill="rgb(222, 233, 238)"/><path aria-label="x: 82; y: 86; Temperature in °F: 14120" role="graphics-symbol" aria-roledescription="rect mark" d="M40,80h20v20h-20Z" fill="rgb(204, 226, 237)"/><path aria-label="x: 81; y: 86; Temperature in °F: 13957" role="graphics-symbol" aria-roledescription="rect mark" d="M20,80h20v20h-20Z" fill="rgb(178, 213, 231)"/><path aria-label="x: 80; y: 86; Temperature in °F: 13796" role="graphics-symbol" aria-roledescription="rect mark" d="M0,80h20v20h-20Z" fill="rgb(152, 199, 223)"/><path aria-label="x: 90; y: 85; Temperature in °F: 15325" role="graphics-symbol" aria-roledescription="rect mark" d="M200,100h20v20h-20Z" fill="rgb(243, 172, 87)"/><path aria-label="x: 89; y: 85; Temperature in °F: 15146" role="graphics-symbol" aria-roledescription="rect mark" d="M180,100h20v20h-20Z" fill="rgb(251, 194, 123)"/><path aria-label="x: 88; y: 85; Temperature in °F: 14969" role="graphics-symbol" aria-roledescription="rect mark" d="M160,100h20v20h-20Z" fill="rgb(252, 211, 159)"/><path aria-label="x: 87; y: 85; Temperature in °F: 14794" role="graphics-symbol" aria-roledescription="rect mark" d="M140,100h20v20h-20Z" fill="rgb(251, 226, 193)"/><path aria-label="x: 86; y: 85; Temperature in °F: 14621" role="graphics-symbol" aria-roledescription="rect mark" d="M120,100h20v20h-20Z" fill="rgb(246, 234, 218)"/><path aria-label="x: 85; y: 85; Temperature in °F: 14450" role="graphics-symbol" aria-roledescription="rect mark" d="M100,100h20v20h-20Z" fill="rgb(237, 238, 236)"/><path aria-label="x: 84; y: 85; Temperature in °F: 14281" role="graphics-symbol" aria-roledescription="rect mark" d="M80,100h20v20h-20Z" fill="rgb(221, 233, 238)"/><path aria-label="x: 83; y: 85; Temperature in °F: 14114" role="graphics-symbol" aria-roledescription="rect mark" d="M60,100h20v20h-20Z" fill="rgb(203, 225, 237)"/><path aria-label="x: 82; y: 85; Temperature in °F: 13949" role="graphics-symbol" aria-roledescription="rect mark" d="M40,100h20v20h-20Z" fill="rgb(177, 212, 230)"/><path aria-label="x: 81; y: 85; Temperature in °F: 13786" role="graphics-symbol" aria-roledescription="rect mark" d="M20,100h20v20h-20Z" fill="rgb(151, 198, 223)"/><path aria-label="x: 80; y: 85; Temperature in °F: 13625" role="graphics-symbol" aria-roledescription="rect mark" d="M0,100h20v20h-20Z" fill="rgb(120, 179, 212)"/><path aria-label="x: 90; y: 84; Temperature in °F: 15156" role="graphics-symbol" aria-roledescription="rect mark" d="M200,120h20v20h-20Z" fill="rgb(251, 193, 121)"/><path aria-label="x: 89; y: 84; Temperature in °F: 14977" role="graphics-symbol" aria-roledescription="rect mark" d="M180,120h20v20h-20Z" fill="rgb(252, 211, 158)"/><path aria-label="x: 88; y: 84; Temperature in °F: 14800" role="graphics-symbol" aria-roledescription="rect mark" d="M160,120h20v20h-20Z" fill="rgb(251, 226, 192)"/><path aria-label="x: 87; y: 84; Temperature in °F: 14625" role="graphics-symbol" aria-roledescription="rect mark" d="M140,120h20v20h-20Z" fill="rgb(246, 234, 217)"/><path aria-label="x: 86; y: 84; Temperature in °F: 14452" role="graphics-symbol" aria-roledescription="rect mark" d="M120,120h20v20h-20Z" fill="rgb(237, 238, 236)"/><path aria-label="x: 85; y: 84; Temperature in °F: 14281" role="graphics-symbol" aria-roledescription="rect mark" d="M100,120h20v20h-20Z" fill="rgb(221, 233, 238)"/><path aria-label="x: 84; y: 84; Temperature in °F: 14112" role="graphics-symbol" aria-roledescription="rect mark" d="M80,120h20v20h-20Z" fill="rgb(203, 225, 237)"/><path aria-label="x: 83; y: 84; Temperature in °F: 13945" role="graphics-symbol" aria-roledescription="rect mark" d="M60,120h20v20h-20Z" fill="rgb(176, 212, 230)"/><path aria-label="x: 82; y: 84; Temperature in °F: 13780" role="graphics-symbol" aria-roledescription="rect mark" d="M40,120h20v20h-20Z" fill="rgb(149, 197, 222)"/><path aria-label="x: 81; y: 84; Temperature in °F: 13617" role="graphics-symbol" aria-roledescription="rect mark" d="M20,120h20v20h-20Z" fill="rgb(119, 178, 212)"/><path aria-label="x: 80; y: 84; Temperature in °F: 13456" role="graphics-symbol" aria-roledescription="rect mark" d="M0,120h20v20h-20Z" fill="rgb(90, 159, 201)"/><path aria-label="x: 90; y: 83; Temperature in °F: 14989" role="graphics-symbol" aria-roledescription="rect mark" d="M200,140h20v20h-20Z" fill="rgb(252, 210, 155)"/><path aria-label="x: 89; y: 83; Temperature in °F: 14810" role="graphics-symbol" aria-roledescription="rect mark" d="M180,140h20v20h-20Z" fill="rgb(251, 225, 190)"/><path aria-label="x: 88; y: 83; Temperature in °F: 14633" role="graphics-symbol" aria-roledescription="rect mark" d="M160,140h20v20h-20Z" fill="rgb(246, 234, 216)"/><path aria-label="x: 87; y: 83; Temperature in °F: 14458" role="graphics-symbol" aria-roledescription="rect mark" d="M140,140h20v20h-20Z" fill="rgb(238, 239, 235)"/><path aria-label="x: 86; y: 83; Temperature in °F: 14285" role="graphics-symbol" aria-roledescription="rect mark" d="M120,140h20v20h-20Z" fill="rgb(222, 233, 238)"/><path aria-label="x: 85; y: 83; Temperature in °F: 14114" role="graphics-symbol" aria-roledescription="rect mark" d="M100,140h20v20h-20Z" fill="rgb(203, 225, 237)"/><path aria-label="x: 84; y: 83; Temperature in °F: 13945" role="graphics-symbol" aria-roledescription="rect mark" d="M80,140h20v20h-20Z" fill="rgb(176, 212, 230)"/><path aria-label="x: 83; y: 83; Temperature in °F: 13778" role="graphics-symbol" aria-roledescription="rect mark" d="M60,140h20v20h-20Z" fill="rgb(149, 197, 222)"/><path aria-label="x: 82; y: 83; Temperature in °F: 13613" role="graphics-symbol" aria-roledescription="rect mark" d="M40,140h20v20h-20Z" fill="rgb(118, 178, 212)"/><path aria-label="x: 81; y: 83; Temperature in °F: 13450" role="graphics-symbol" aria-roledescription="rect mark" d="M20,140h20v20h-20Z" fill="rgb(89, 158, 201)"/><path aria-label="x: 80; y: 83; Temperature in °F: 13289" role="graphics-symbol" aria-roledescription="rect mark" d="M0,140h20v20h-20Z" fill="rgb(67, 138, 190)"/><path aria-label="x: 90; y: 82; Temperature in °F: 14824" role="graphics-symbol" aria-roledescription="rect mark" d="M200,160h20v20h-20Z" fill="rgb(252, 225, 188)"/><path aria-label="x: 89; y: 82; Temperature in °F: 14645" role="graphics-symbol" aria-roledescription="rect mark" d="M180,160h20v20h-20Z" fill="rgb(246, 233, 214)"/><path aria-label="x: 88; y: 82; Temperature in °F: 14468" role="graphics-symbol" aria-roledescription="rect mark" d="M160,160h20v20h-20Z" fill="rgb(239, 239, 235)"/><path aria-label="x: 87; y: 82; Temperature in °F: 14293" role="graphics-symbol" aria-roledescription="rect mark" d="M140,160h20v20h-20Z" fill="rgb(223, 233, 237)"/><path aria-label="x: 86; y: 82; Temperature in °F: 14120" role="graphics-symbol" aria-roledescription="rect mark" d="M120,160h20v20h-20Z" fill="rgb(204, 226, 237)"/><path aria-label="x: 85; y: 82; Temperature in °F: 13949" role="graphics-symbol" aria-roledescription="rect mark" d="M100,160h20v20h-20Z" fill="rgb(177, 212, 230)"/><path aria-label="x: 84; y: 82; Temperature in °F: 13780" role="graphics-symbol" aria-roledescription="rect mark" d="M80,160h20v20h-20Z" fill="rgb(149, 197, 222)"/><path aria-label="x: 83; y: 82; Temperature in °F: 13613" role="graphics-symbol" aria-roledescription="rect mark" d="M60,160h20v20h-20Z" fill="rgb(118, 178, 212)"/><path aria-label="x: 82; y: 82; Temperature in °F: 13448" role="graphics-symbol" aria-roledescription="rect mark" d="M40,160h20v20h-20Z" fill="rgb(89, 158, 201)"/><path aria-label="x: 81; y: 82; Temperature in °F: 13285" role="graphics-symbol" aria-roledescription="rect mark" d="M20,160h20v20h-20Z" fill="rgb(67, 138, 189)"/><path aria-label="x: 80; y: 82; Temperature in °F: 13124" role="graphics-symbol" aria-roledescription="rect mark" d="M0,160h20v20h-20Z" fill="rgb(46, 118, 177)"/><path aria-label="x: 90; y: 81; Temperature in °F: 14661" role="graphics-symbol" aria-roledescription="rect mark" d="M200,180h20v20h-20Z" fill="rgb(247, 232, 212)"/><path aria-label="x: 89; y: 81; Temperature in °F: 14482" role="graphics-symbol" aria-roledescription="rect mark" d="M180,180h20v20h-20Z" fill="rgb(240, 239, 235)"/><path aria-label="x: 88; y: 81; Temperature in °F: 14305" role="graphics-symbol" aria-roledescription="rect mark" d="M160,180h20v20h-20Z" fill="rgb(224, 234, 237)"/><path aria-label="x: 87; y: 81; Temperature in °F: 14130" role="graphics-symbol" aria-roledescription="rect mark" d="M140,180h20v20h-20Z" fill="rgb(205, 227, 238)"/><path aria-label="x: 86; y: 81; Temperature in °F: 13957" role="graphics-symbol" aria-roledescription="rect mark" d="M120,180h20v20h-20Z" fill="rgb(178, 213, 231)"/><path aria-label="x: 85; y: 81; Temperature in °F: 13786" role="graphics-symbol" aria-roledescription="rect mark" d="M100,180h20v20h-20Z" fill="rgb(151, 198, 223)"/><path aria-label="x: 84; y: 81; Temperature in °F: 13617" role="graphics-symbol" aria-roledescription="rect mark" d="M80,180h20v20h-20Z" fill="rgb(119, 178, 212)"/><path aria-label="x: 83; y: 81; Temperature in °F: 13450" role="graphics-symbol" aria-roledescription="rect mark" d="M60,180h20v20h-20Z" fill="rgb(89, 158, 201)"/><path aria-label="x: 82; y: 81; Temperature in °F: 13285" role="graphics-symbol" aria-roledescription="rect mark" d="M40,180h20v20h-20Z" fill="rgb(67, 138, 189)"/><path aria-label="x: 81; y: 81; Temperature in °F: 13122" role="graphics-symbol" aria-roledescription="rect mark" d="M20,180h20v20h-20Z" fill="rgb(46, 118, 177)"/><path aria-label="x: 80; y: 81; Temperature in °F: 12961" role="graphics-symbol" aria-roledescription="rect mark" d="M0,180h20v20h-20Z" fill="rgb(32, 96, 155)"/><path aria-label="x: 90; y: 80; Temperature in °F: 14500" role="graphics-symbol" aria-roledescription="rect mark" d="M200,200h20v20h-20Z" fill="rgb(242, 240, 235)"/><path aria-label="x: 89; y: 80; Temperature in °F: 14321" role="graphics-symbol" aria-roledescription="rect mark" d="M180,200h20v20h-20Z" fill="rgb(225, 234, 237)"/><path aria-label="x: 88; y: 80; Temperature in °F: 14144" role="graphics-symbol" aria-roledescription="rect mark" d="M160,200h20v20h-20Z" fill="rgb(208, 228, 238)"/><path aria-label="x: 87; y: 80; Temperature in °F: 13969" role="graphics-symbol" aria-roledescription="rect mark" d="M140,200h20v20h-20Z" fill="rgb(180, 214, 231)"/><path aria-label="x: 86; y: 80; Temperature in °F: 13796" role="graphics-symbol" aria-roledescription="rect mark" d="M120,200h20v20h-20Z" fill="rgb(152, 199, 223)"/><path aria-label="x: 85; y: 80; Temperature in °F: 13625" role="graphics-symbol" aria-roledescription="rect mark" d="M100,200h20v20h-20Z" fill="rgb(120, 179, 212)"/><path aria-label="x: 84; y: 80; Temperature in °F: 13456" role="graphics-symbol" aria-roledescription="rect mark" d="M80,200h20v20h-20Z" fill="rgb(90, 159, 201)"/><path aria-label="x: 83; y: 80; Temperature in °F: 13289" role="graphics-symbol" aria-roledescription="rect mark" d="M60,200h20v20h-20Z" fill="rgb(67, 138, 190)"/><path aria-label="x: 82; y: 80; Temperature in °F: 13124" role="graphics-symbol" aria-roledescription="rect mark" d="M40,200h20v20h-20Z" fill="rgb(46, 118, 177)"/><path aria-label="x: 81; y: 80; Temperature in °F: 12961" role="graphics-symbol" aria-roledescription="rect mark" d="M20,200h20v20h-20Z" fill="rgb(32, 96, 155)"/><path aria-label="x: 80; y: 80; Temperature in °F: 12800" role="graphics-symbol" aria-roledescription="rect mark" d="M0,200h20v20h-20Z" fill="rgb(19, 75, 133)"/></g><g class="mark-group role-legend" role="graphics-symbol" aria-roledescription="legend" aria-label="Gradient legend titled 'Temperature in °F' for fill color with values from 12,800 to 16,200"><g transform="translate(238,0)"><path class="background" aria-hidden="true" d="M0,0h93v216h-93Z" pointer-events="none"/><g><g class="mark-group role-legend-entry"><g transform="translate(0,16)"><path class="background" aria-hidden="true" d="M0,0h0v0h0Z" pointer-events="none"/><g><g class="mark-rect role-legend-gradient" pointer-events="none"><path d="M0,0h16v200h-16Z" fill="url(#gradient_0)" stroke="#ddd" stroke-width="0" opacity="1"/></g><g class="mark-text role-legend-label" pointer-events="none"><text text-anchor="start" transform="translate(18,191.23529411764704)" font-family="sans-serif" font-size="10px" fill="#000" opacity="1">13,000</text><text text-anchor="start" transform="translate(18,132.41176470588235)" font-family="sans-serif" font-size="10px" fill="#000" opacity="1">14,000</text><text text-anchor="start" transform="translate(18,73.58823529411764)" font-family="sans-serif" font-size="10px" fill="#000" opacity="1">15,000</text><text text-anchor="start" transform="translate(18,14.764705882352944)" font-family="sans-serif" font-size="10px" fill="#000" opacity="1">16,000</text></g></g><path class="foreground" aria-hidden="true" d="" pointer-events="none" display="none"/></g></g><g class="mark-text role-legend-title" pointer-events="none"><text text-anchor="start" transform="translate(0,9)" font-family="sans-serif" font-size="11px" font-weight="bold" fill="#000" opacity="1">Temperature in °F</text></g></g><path class="foreground" aria-hidden="true" d="" pointer-events="none" display="none"/></g></g><g class="mark-group role-title"><g transform="translate(110,-17)"><path class="background" aria-hidden="true" d="M0,0h0v0h0Z" pointer-events="none"/><g><g class="mark-text role-title-text" role="graphics-symbol" aria-roledescription="title" aria-label="Title text 'Higher temperatures make female turtle hatchlings'" pointer-events="none"><text text-anchor="middle" transform="translate(0,10)" font-family="sans-serif" font-size="13px" font-weight="bold" fill="#000" opacity="1">Higher temperatures make female turtle hatchlings</text></g></g><path class="foreground" aria-hidden="true" d="" pointer-events="none" display="none"/></g></g><g class="mark-group role-axis" role="graphics-symbol" aria-roledescription="axis" aria-label="X-axis titled 'x' for a discrete scale with 11 values: 80, 81, 82, 83, 84, ending with 90"><g transform="translate(0.5,220.5)"><path class="background" aria-hidden="true" d="M0,0h0v0h0Z" pointer-events="none"/><g><g class="mark-rule role-axis-tick" pointer-events="none"><line transform="translate(10,0)" x2="0" y2="5" stroke="#888" stroke-width="1" opacity="1"/><line transform="translate(30,0)" x2="0" y2="5" stroke="#888" stroke-width="1" opacity="1"/><line transform="translate(50,0)" x2="0" y2="5" stroke="#888" stroke-width="1" opacity="1"/><line transform="translate(70,0)" x2="0" y2="5" stroke="#888" stroke-width="1" opacity="1"/><line transform="translate(90,0)" x2="0" y2="5" stroke="#888" stroke-width="1" opacity="1"/><line transform="translate(110,0)" x2="0" y2="5" stroke="#888" stroke-width="1" opacity="1"/><line transform="translate(130,0)" x2="0" y2="5" stroke="#888" stroke-width="1" opacity="1"/><line transform="translate(150,0)" x2="0" y2="5" stroke="#888" stroke-width="1" opacity="1"/><line transform="translate(170,0)" x2="0" y2="5" stroke="#888" stroke-width="1" opacity="1"/><line transform="translate(190,0)" x2="0" y2="5" stroke="#888" stroke-width="1" opacity="1"/><line transform="translate(210,0)" x2="0" y2="5" stroke="#888" stroke-width="1" opacity="1"/></g><g class="mark-text role-axis-label" pointer-events="none"><text text-anchor="end" transform="translate(9.5,7) rotate(270) translate(0,3)" font-family="sans-serif" font-size="10px" fill="#000" opacity="1">80</text><text text-anchor="end" transform="translate(29.5,7) rotate(270) translate(0,3)" font-family="sans-serif" font-size="10px" fill="#000" opacity="1">81</text><text text-anchor="end" transform="translate(49.5,7) rotate(270) translate(0,3)" font-family="sans-serif" font-size="10px" fill="#000" opacity="1">82</text><text text-anchor="end" transform="translate(69.5,7) rotate(270) translate(0,3)" font-family="sans-serif" font-size="10px" fill="#000" opacity="1">83</text><text text-anchor="end" transform="translate(89.5,7) rotate(270) translate(0,3)" font-family="sans-serif" font-size="10px" fill="#000" opacity="1">84</text><text text-anchor="end" transform="translate(109.5,7) rotate(270) translate(0,3)" font-family="sans-serif" font-size="10px" fill="#000" opacity="1">85</text><text text-anchor="end" transform="translate(129.5,7) rotate(270) translate(0,3)" font-family="sans-serif" font-size="10px" fill="#000" opacity="1">86</text><text text-anchor="end" transform="translate(149.5,7) rotate(270) translate(0,3)" font-family="sans-serif" font-size="10px" fill="#000" opacity="1">87</text><text text-anchor="end" transform="translate(169.5,7) rotate(270) translate(0,3)" font-family="sans-serif" font-size="10px" fill="#000" opacity="1">88</text><text text-anchor="end" transform="translate(189.5,7) rotate(270) translate(0,3)" font-family="sans-serif" font-size="10px" fill="#000" opacity="1">89</text><text text-anchor="end" transform="translate(209.5,7) rotate(270) translate(0,3)" font-family="sans-serif" font-size="10px" fill="#000" opacity="1">90</text></g><g class="mark-rule role-axis-domain" pointer-events="none"><line transform="translate(0,0)" x2="220" y2="0" stroke="#888" stroke-width="1" opacity="1"/></g><g class="mark-text role-axis-title" pointer-events="none"><text text-anchor="middle" transform="translate(110,31.123046875)" font-family="sans-serif" font-size="11px" font-weight="bold" fill="#000" opacity="1">x</text></g></g><path class="foreground" aria-hidden="true" d="" pointer-events="none" display="none"/></g></g><g class="mark-group role-axis" role="graphics-symbol" aria-roledescription="axis" aria-label="Y-axis titled 'y' for a discrete scale with 11 values: 90, 89, 88, 87, 86, ending with 80"><g transform="translate(0.5,0.5)"><path class="background" aria-hidden="true" d="M0,0h0v0h0Z" pointer-events="none"/><g><g class="mark-rule role-axis-tick" pointer-events="none"><line transform="translate(0,10)" x2="-5" y2="0" stroke="#888" stroke-width="1" opacity="1"/><line transform="translate(0,30)" x2="-5" y2="0" stroke="#888" stroke-width="1" opacity="1"/><line transform="translate(0,50)" x2="-5" y2="0" stroke="#888" stroke-width="1" opacity="1"/><line transform="translate(0,70)" x2="-5" y2="0" stroke="#888" stroke-width="1" opacity="1"/><line transform="translate(0,90)" x2="-5" y2="0" stroke="#888" stroke-width="1" opacity="1"/><line transform="translate(0,110)" x2="-5" y2="0" stroke="#888" stroke-width="1" opacity="1"/><line transform="translate(0,130)" x2="-5" y2="0" stroke="#888" stroke-width="1" opacity="1"/><line transform="translate(0,150)" x2="-5" y2="0" stroke="#888" stroke-width="1" opacity="1"/><line transform="translate(0,170)" x2="-5" y2="0" stroke="#888" stroke-width="1" opacity="1"/><line transform="translate(0,190)" x2="-5" y2="0" stroke="#888" stroke-width="1" opacity="1"/><line transform="translate(0,210)" x2="-5" y2="0" stroke="#888" stroke-width="1" opacity="1"/></g><g class="mark-text role-axis-label" pointer-events="none"><text text-anchor="end" transform="translate(-7,12.5)" font-family="sans-serif" font-size="10px" fill="#000" opacity="1">90</text><text text-anchor="end" transform="translate(-7,32.5)" font-family="sans-serif" font-size="10px" fill="#000" opacity="1">89</text><text text-anchor="end" transform="translate(-7,52.5)" font-family="sans-serif" font-size="10px" fill="#000" opacity="1">88</text><text text-anchor="end" transform="translate(-7,72.5)" font-family="sans-serif" font-size="10px" fill="#000" opacity="1">87</text><text text-anchor="end" transform="translate(-7,92.5)" font-family="sans-serif" font-size="10px" fill="#000" opacity="1">86</text><text text-anchor="end" transform="translate(-7,112.5)" font-family="sans-serif" font-size="10px" fill="#000" opacity="1">85</text><text text-anchor="end" transform="translate(-7,132.5)" font-family="sans-serif" font-size="10px" fill="#000" opacity="1">84</text><text text-anchor="end" transform="translate(-7,152.5)" font-family="sans-serif" font-size="10px" fill="#000" opacity="1">83</text><text text-anchor="end" transform="translate(-7,172.5)" font-family="sans-serif" font-size="10px" fill="#000" opacity="1">82</text><text text-anchor="end" transform="translate(-7,192.5)" font-family="sans-serif" font-size="10px" fill="#000" opacity="1">81</text><text text-anchor="end" transform="translate(-7,212.5)" font-family="sans-serif" font-size="10px" fill="#000" opacity="1">80</text></g><g class="mark-rule role-axis-domain" pointer-events="none"><line transform="translate(0,0)" x2="0" y2="220" stroke="#888" stroke-width="1" opacity="1"/></g><g class="mark-text role-axis-title" pointer-events="none"><text text-anchor="middle" transform="translate(-22.123046875,110) rotate(-90) translate(0,-2)" font-family="sans-serif" font-size="11px" font-weight="bold" fill="#000" opacity="1">y</text></g></g><path class="foreground" aria-hidden="true" d="" pointer-events="none" display="none"/></g></g></g><path class="foreground" aria-hidden="true" d="" display="none"/></g></g></g><defs><linearGradient id="gradient_0" x1="0" x2="0" y1="1" y2="0"><stop offset="0" stop-color="rgb(19, 75, 133)"/><stop offset="0.058823529411764705" stop-color="rgb(35, 101, 160)"/><stop offset="0.11764705882352941" stop-color="rgb(55, 127, 183)"/><stop offset="0.17647058823529413" stop-color="rgb(82, 152, 197)"/><stop offset="0.23529411764705882" stop-color="rgb(116, 176, 211)"/><stop offset="0.29411764705882354" stop-color="rgb(153, 200, 224)"/><stop offset="0.35294117647058826" stop-color="rgb(185, 216, 232)"/><stop offset="0.4117647058823529" stop-color="rgb(214, 230, 239)"/><stop offset="0.47058823529411764" stop-color="rgb(233, 237, 236)"/><stop offset="0.5294117647058824" stop-color="rgb(245, 235, 221)"/><stop offset="0.5882352941176471" stop-color="rgb(251, 226, 192)"/><stop offset="0.6470588235294118" stop-color="rgb(252, 208, 153)"/><stop offset="0.7058823529411765" stop-color="rgb(250, 188, 112)"/><stop offset="0.7647058823529411" stop-color="rgb(239, 163, 71)"/><stop offset="0.8235294117647058" stop-color="rgb(224, 137, 39)"/><stop offset="0.8823529411764706" stop-color="rgb(203, 112, 19)"/><stop offset="0.9411764705882353" stop-color="rgb(179, 92, 11)"/><stop offset="1" stop-color="rgb(153, 74, 7)"/></linearGradient></defs></svg>